<?xml version="1.0" encoding="utf-8"?>
<!-- Generator: Adobe Illustrator 26.0.2, SVG Export Plug-In . SVG Version: 6.00 Build 0)  -->
<svg version="1.1" id="Capa_1" xmlns="http://www.w3.org/2000/svg" xmlns:xlink="http://www.w3.org/1999/xlink" x="0px" y="0px"
	 viewBox="0 0 1274 801" style="enable-background:new 0 0 1274 801;" xml:space="preserve">
<style type="text/css">
	.st0{fill:#FFFFFF;}
</style>
<g transform="translate(0.000000,801.000000) scale(0.100000,-0.100000)">
	<path class="st0" d="M684,7989c-20-23-21-1541,0-1558c9-8,419-12,1434-13l1421-3l-188-340c-152-274-954-1735-1289-2345
		c-41-74-86-155-102-180C1931,3503,69,134,12,24L0,2l4208-1c2620-1,4245,2,4307,8c55,6,179,15,275,21c417,25,782,87,1104,185
		c324,99,672,251,926,405c30,19,87,53,125,76c39,23,108,71,154,106c45,35,96,72,111,83c137,99,368,311,547,505
		c157,171,380,484,513,723c247,445,399,936,452,1462c19,195,16,693-6,880c-56,482-173,877-381,1290c-201,399-433,716-779,1060
		c-293,293-559,494-871,661c-187,100-549,262-630,283c-22,5-78,24-125,41c-271,100-658,167-1160,202c-242,17-1735,17-1765,1
		c-12-6-46-58-77-115c-297-550-476-874-671-1218c-127-223-260-463-296-535c-37-71-103-193-148-270c-102-178-270-483-358-650
		c-37-71-106-194-151-273c-46-78-136-240-200-360c-65-119-172-314-239-432c-173-305-260-462-450-815c-92-170-259-473-371-672
		s-204-364-204-367c0-4,388-5,863-4l862,3l48,24c62,30,92,71,181,251c68,137,330,622,430,795c25,44,46,84,46,88c0,5,24,50,54,100
		c29,51,97,173,151,272s144,264,200,366c57,102,137,253,178,335s101,194,133,249c31,55,72,127,89,160c18,33,53,96,79,140
		c25,44,46,83,46,86c0,4,20,42,45,84s69,122,97,178s100,190,162,297c61,107,165,301,231,430c97,191,126,239,154,257
		c34,23,35,23,430,23c218,0,437-5,486-10c511-57,955-218,1321-477c124-88,349-303,456-437c331-411,514-899,535-1426
		c21-541-158-1108-486-1535c-66-86-261-285-366-373c-108-90-241-179-387-256c-126-67-426-190-487-200c-24-3-55-13-70-20
		c-28-15-399-80-546-96c-56-6-1213-10-3080-11c-2548-1-2991,1-2999,13c-6,9,4,35,32,79c22,36,74,134,115,216c42,83,93,179,115,214
		c53,88,183,324,277,504c117,226,235,442,282,520c24,38,43,73,43,78s32,66,71,135c115,203,1275,2339,1669,3072
		c262,488,464,859,677,1242c173,314,177,322,159,337c-9,8-822,12-2725,13C941,8005,697,8004,684,7989z"/>
</g>
</svg>
