<?xml version="1.0" standalone="no"?>
<!DOCTYPE svg PUBLIC "-//W3C//DTD SVG 20010904//EN"
 "http://www.w3.org/TR/2001/REC-SVG-20010904/DTD/svg10.dtd">
<svg version="1.0" xmlns="http://www.w3.org/2000/svg"
 width="1274.000000pt" height="801.000000pt" viewBox="0 0 1274.000000 801.000000"
 preserveAspectRatio="xMidYMid meet">

<g transform="translate(0.000000,801.000000) scale(0.100000,-0.100000)"
fill="#000000" stroke="none">
<path d="M684 7989 c-20 -23 -21 -1541 0 -1558 9 -8 419 -12 1434 -13 l1421
-3 -188 -340 c-152 -274 -954 -1735 -1289 -2345 -41 -74 -86 -155 -102 -180
-29 -47 -1891 -3416 -1948 -3526 l-12 -22 4208 -1 c2620 -1 4245 2 4307 8 55
6 179 15 275 21 417 25 782 87 1104 185 324 99 672 251 926 405 30 19 87 53
125 76 39 23 108 71 154 106 45 35 96 72 111 83 137 99 368 311 547 505 157
171 380 484 513 723 247 445 399 936 452 1462 19 195 16 693 -6 880 -56 482
-173 877 -381 1290 -201 399 -433 716 -779 1060 -293 293 -559 494 -871 661
-187 100 -549 262 -630 283 -22 5 -78 24 -125 41 -271 100 -658 167 -1160 202
-242 17 -1735 17 -1765 1 -12 -6 -46 -58 -77 -115 -297 -550 -476 -874 -671
-1218 -127 -223 -260 -463 -296 -535 -37 -71 -103 -193 -148 -270 -102 -178
-270 -483 -358 -650 -37 -71 -106 -194 -151 -273 -46 -78 -136 -240 -200 -360
-65 -119 -172 -314 -239 -432 -173 -305 -260 -462 -450 -815 -92 -170 -259
-473 -371 -672 -112 -199 -204 -364 -204 -367 0 -4 388 -5 863 -4 l862 3 48
24 c62 30 92 71 181 251 68 137 330 622 430 795 25 44 46 84 46 88 0 5 24 50
54 100 29 51 97 173 151 272 54 99 144 264 200 366 57 102 137 253 178 335 41
82 101 194 133 249 31 55 72 127 89 160 18 33 53 96 79 140 25 44 46 83 46 86
0 4 20 42 45 84 25 42 69 122 97 178 28 56 100 190 162 297 61 107 165 301
231 430 97 191 126 239 154 257 34 23 35 23 430 23 218 0 437 -5 486 -10 511
-57 955 -218 1321 -477 124 -88 349 -303 456 -437 331 -411 514 -899 535
-1426 21 -541 -158 -1108 -486 -1535 -66 -86 -261 -285 -366 -373 -108 -90
-241 -179 -387 -256 -126 -67 -426 -190 -487 -200 -24 -3 -55 -13 -70 -20 -28
-15 -399 -80 -546 -96 -56 -6 -1213 -10 -3080 -11 -2548 -1 -2991 1 -2999 13
-6 9 4 35 32 79 22 36 74 134 115 216 42 83 93 179 115 214 53 88 183 324 277
504 117 226 235 442 282 520 24 38 43 73 43 78 0 5 32 66 71 135 115 203 1275
2339 1669 3072 262 488 464 859 677 1242 173 314 177 322 159 337 -9 8 -822
12 -2725 13 -2470 3 -2714 2 -2727 -13z"/>
</g>
</svg>
